<?xml version="1.0" encoding="UTF-8" standalone="no"?>
<svg width="68px" height="59px" viewBox="0 0 68 59" version="1.1" xmlns="http://www.w3.org/2000/svg" xmlns:xlink="http://www.w3.org/1999/xlink">
    <!-- Generator: Sketch 3.6.1 (26313) - http://www.bohemiancoding.com/sketch -->
    <title>Group</title>
    <desc>Created with Sketch.</desc>
    <defs></defs>
    <g id="Page-1" stroke="none" stroke-width="1" fill="none" fill-rule="evenodd">
        <g id="Artboard-1" fill="#000000">
            <g id="Group">
                <path d="M62.7035232,32.0624355 L62.7035232,25.2888655 C62.7035232,11.4857731 51.5101538,0.288235331 37.7024328,0.288235331 L30.1318127,0.288235331 C16.3166909,0.288235331 5.13072235,11.4813987 5.13072235,25.2888655 L5.13072235,32.0624355 L8.59001028,32.0624355 L8.59001028,24.9121667 C8.59001028,13.3195138 17.9989688,3.92181174 29.5952813,3.92181174 L38.2389643,3.92181174 C49.8398551,3.92181174 59.2442353,13.3268372 59.2442353,24.9121667 L59.2442353,32.0624355 L62.7035232,32.0624355 Z" id="Rectangle-1"></path>
                <path d="M34.0042456,58.7117647 C48.1561861,58.7117647 59.6286006,47.2393502 59.6286006,33.0874097 C59.6286006,18.9354692 48.1561861,7.46305472 34.0042456,7.46305472 C19.8523051,7.46305472 8.37989064,18.9354692 8.37989064,33.0874097 C8.37989064,47.2393502 19.8523051,58.7117647 34.0042456,58.7117647 Z M34.0042456,54.6118679 C45.8918756,54.6118679 55.5287038,44.9750397 55.5287038,33.0874097 C55.5287038,21.1997797 45.8918756,11.5629515 34.0042456,11.5629515 C22.1166156,11.5629515 12.4797874,21.1997797 12.4797874,33.0874097 C12.4797874,44.9750397 22.1166156,54.6118679 34.0042456,54.6118679 Z" id="Combined-Shape"></path>
                <path d="M11.0281762,42.1702342 C10.5012445,42.2637654 9.95884993,42.3125637 9.40505795,42.3125637 C4.31025273,42.3125637 0.180097051,38.182408 0.180097051,33.0876028 C0.180097051,27.9927976 4.31025273,23.8626419 9.40505795,23.8626419 C9.95884993,23.8626419 10.5012445,23.9114402 11.0281762,24.0049714 C9.97924817,26.8280142 9.40505795,29.8893854 9.40505795,33.0876028 C9.40505795,36.2858202 9.97924817,39.3471914 11.0281762,42.1702342 Z" id="Oval-3"></path>
                <path d="M57.5786522,42.2881514 C57.8019718,42.3043324 58.0274956,42.3125637 58.2549419,42.3125637 C63.3497471,42.3125637 67.4799028,38.182408 67.4799028,33.0876028 C67.4799028,27.9927976 63.3497471,23.8626419 58.2549419,23.8626419 C58.0274956,23.8626419 57.8019718,23.8708732 57.5786522,23.8870542 C58.6775806,26.7426922 59.2799376,29.8448035 59.2799376,33.0876028 C59.2799376,36.3304021 58.6775806,39.4325134 57.5786522,42.2881514 Z" id="Oval-3-Copy"></path>
                <path d="M34,25.037037 C36.209139,25.037037 38,23.237885 38,21.0185185 C38,18.799152 36.209139,17 34,17 C31.790861,17 30,18.799152 30,21.0185185 C30,23.237885 31.790861,25.037037 34,25.037037 Z M30,27.3333333 L38,27.3333333 L38,46 L30,46 L30,27.3333333 Z" id="Combined-Shape"></path>
            </g>
        </g>
    </g>
</svg>