<?xml version="1.0" encoding="UTF-8" standalone="no"?>
<svg width="84px" height="84px" viewBox="0 0 84 84" version="1.1" xmlns="http://www.w3.org/2000/svg" xmlns:xlink="http://www.w3.org/1999/xlink">
    <!-- Generator: Sketch 3.6.1 (26313) - http://www.bohemiancoding.com/sketch -->
    <title>DarkModeButtonLight</title>
    <desc>Created with Sketch.</desc>
    <defs></defs>
    <g id="Page-1" stroke="none" stroke-width="1" fill="none" fill-rule="evenodd">
        <g id="DarkModeButton" fill="#BBBBBB">
            <path d="M42,68 C56.3594035,68 68,56.3594035 68,42 C68,27.6405965 56.3594035,16 42,16 C27.6405965,16 16,27.6405965 16,42 C16,56.3594035 27.6405965,68 42,68 L42,68 L42,68 Z M42,60 C51.9411255,60 60,51.9411255 60,42 C60,32.0588745 51.9411255,24 42,24 C32.0588745,24 24,32.0588745 24,42 C24,51.9411255 32.0588745,60 42,60 L42,60 L42,60 Z" id="Combined-Shape"></path>
            <path d="M42,61.9940218 L42,21.0059782 C53.0908268,21.2714569 62,30.345304 62,41.5 C62,52.654696 53.0908268,61.7285431 42,61.9940218 L42,61.9940218 Z" id="Combined-Shape"></path>
            <path d="M35,7 C35,3.13400675 38.1418733,0 42,0 C45.8659932,0 49,3.14187327 49,7 C49,10.8659932 45.8581267,14 42,14 C38.1340068,14 35,10.8581267 35,7 Z M61.7989899,12.3015152 C64.5326599,9.56784515 68.9703772,9.57340762 71.6984848,12.3015152 C74.4321549,15.0351852 74.4265924,19.4729026 71.6984848,22.2010101 C68.9648148,24.9346802 64.5270974,24.9291177 61.7989899,22.2010101 C59.0653198,19.4673401 59.0708823,15.0296228 61.7989899,12.3015152 Z M77,35 C80.8659932,35 84,38.1418733 84,42 C84,45.8659932 80.8581267,49 77,49 C73.1340068,49 70,45.8581267 70,42 C70,38.1340068 73.1418733,35 77,35 Z M71.6984848,61.7989899 C74.4321549,64.5326599 74.4265924,68.9703772 71.6984848,71.6984848 C68.9648148,74.4321549 64.5270974,74.4265924 61.7989899,71.6984848 C59.0653198,68.9648148 59.0708823,64.5270974 61.7989899,61.7989899 C64.5326599,59.0653198 68.9703772,59.0708823 71.6984848,61.7989899 Z M49,77 C49,80.8659932 45.8581267,84 42,84 C38.1340068,84 35,80.8581267 35,77 C35,73.1340068 38.1418733,70 42,70 C45.8659932,70 49,73.1418733 49,77 Z M22.2010101,71.6984848 C19.4673401,74.4321549 15.0296228,74.4265924 12.3015152,71.6984848 C9.56784515,68.9648148 9.57340762,64.5270974 12.3015152,61.7989899 C15.0351852,59.0653198 19.4729026,59.0708823 22.2010101,61.7989899 C24.9346802,64.5326599 24.9291177,68.9703772 22.2010101,71.6984848 Z M7,49 C3.13400675,49 -6.68793617e-17,45.8581267 -7.75605744e-16,42 C-1.48577718e-15,38.1340068 3.14187327,35 7,35 C10.8659932,35 14,38.1418733 14,42 C14,45.8659932 10.8581267,49 7,49 Z M12.3015152,22.2010101 C9.56784515,19.4673401 9.57340762,15.0296228 12.3015152,12.3015152 C15.0351852,9.56784515 19.4729026,9.57340762 22.2010101,12.3015152 C24.9346802,15.0351852 24.9291177,19.4729026 22.2010101,22.2010101 C19.4673401,24.9346802 15.0296228,24.9291177 12.3015152,22.2010101 Z" id="Rectangle-1"></path>
        </g>
    </g>
</svg>